# xmcd
#
# Track frame offsets:
#	150
#	21005
#	49683
#	67018
#	89349
#	106273
#	127060
#	141403
#	158631
#	182906
#
# Disc length: 2693 seconds
#
# Revision: 0
# Processed by: cddbd v1.5.2PL0 Copyright (c) Steve Scherf et al.
# Submitted via: EasyCDDAExtractor 12.1.0.1
#
DISCID=8a0a830a
DTITLE=Blue Stuff - Chicago Bound
DYEAR=1990
DGENRE=Blues
TTITLE0=Greenwood Mississipi
TTITLE1=Ride on, Blue train
TTITLE2=Another story
TTITLE3=Sad job blues
TTITLE4=Stagger lee
TTITLE5=M&O train
TTITLE6=Tell me
TTITLE7=I told my woman
TTITLE8=The city
TTITLE9=Broke man's blues
EXTD=
EXTT0=
EXTT1=
EXTT2=
EXTT3=
EXTT4=
EXTT5=
EXTT6=
EXTT7=
EXTT8=
EXTT9=
PLAYORDER=
